<?xml version="1.0" encoding="UTF-8" standalone="no"?>
<svg
   version="1.1"
   id="svg1"
   width="947"
   height="241"
   viewBox="0 0 947 241"
   xmlns="http://www.w3.org/2000/svg"
   xmlns:svg="http://www.w3.org/2000/svg">
  <defs
     id="defs2">
    <linearGradient
       id="goldGradient"
       x1="0%"
       y1="0%"
       x2="100%"
       y2="100%">
      <stop
         offset="0%"
         style="stop-color:#C5A059"
         id="stop1" />
      <stop
         offset="100%"
         style="stop-color:#DBC184"
         id="stop2" />
    </linearGradient>
  </defs>
  <g
     id="g1">
    <!-- v letter (black) -->
    <path
       style="fill:#1a1a1a"
       d="m 593.48567,192.44694 c -1.08543,-1.7802 -1.9752,-3.614 -1.97725,-4.0751 -0.002,-0.461 -1.369,-3.7879 -3.03766,-7.39301 -1.66866,-3.60514 -5.05745,-11.49538 -7.53064,-17.53387 -2.47319,-6.03848 -5.33002,-12.8366 -6.34851,-15.10694 -2.29022,-5.10519 -5.55851,-12.71847 -16.08406,-37.46686 -9.75453,-22.935541 -10.46517,-21.289071 9.03714,-20.937991 17.9565,0.32325 14.91201,-2.10585 23.53392,18.776971 3.06557,7.425 6.18005,14.85 6.92106,16.5 0.74102,1.65 2.47335,5.925 3.84962,9.5 4.45591,11.57461 8.49593,20.44685 9.45637,20.76699 0.51597,0.17199 7.13605,-14.21772 14.71128,-31.97714 7.57524,-17.75942 14.27144,-32.620461 14.88045,-33.024531 1.92302,-1.27593 30.60729,-0.91811 30.60729,0.3818 0,0.97267 -6.70295,17.146491 -12.99364,31.352881 -0.97417,2.2 -3.22332,7.375 -4.99809,11.5 -1.77478,4.125 -3.83222,8.85 -4.57209,10.5 -0.73987,1.65 -2.29933,5.475 -3.46546,8.5 -1.16614,3.025 -4.36633,10.675 -7.11155,17 -2.74521,6.325 -6.14672,14.2 -7.5589,17.5 -3.81403,8.9126 -2.61966,8.4062 -19.90811,8.4418 -15.43765,0.032 -15.43765,0.032 -17.41117,-3.205 z"
       id="letter-v" />
    <!-- K text letter (gold) -->
    <path
       style="fill:url(#goldGradient)"
       d="m 298.74814,194.89514 c -0.99382,-0.6415 -1.2029,-16.16572 -1,-74.24806 l 0.25654,-73.436941 h 17.5 17.5 l 0.5,31.83847 0.5,31.838471 5.85621,-6.19516 c 3.22091,-3.40734 8.12256,-8.734651 10.89255,-11.838471 2.76999,-3.10382 7.78972,-8.56831 11.15497,-12.14331 3.36524,-3.575 11.90678,-12.6875 18.98119,-20.25 l 12.86257,-13.75 h 18.70959 c 10.29027,0 18.98724,0.27765 19.32659,0.617 0.6295,0.62951 -16.23092,19.60879 -43.84439,49.35433 -16.53521,17.811911 -19.15648,9.156111 17.60813,58.144441 8.00108,10.66133 16.66929,22.30923 19.26269,25.88423 2.5934,3.575 5.87496,7.9401 7.29236,9.7002 4.04013,5.0171 3.10807,5.2998 -17.47035,5.2998 -22.53145,0 -17.13024,3.8346 -42.60834,-30.25 -18.60643,-24.8917 -22.47841,-29.52923 -22.54289,-27 -0.0105,0.4125 -3.60115,4.50741 -7.97919,9.09981 l -7.96008,8.34981 -0.2708,19.65019 -0.27081,19.65019 -16.5,0.2481 c -9.075,0.1364 -17.06544,-0.117 -17.75654,-0.5631 z"
       id="letter-K" />
    <!-- o letter with hole (black) - combined paths with evenodd -->
    <path
       style="fill:#1a1a1a;fill-rule:evenodd"
       d="m 870.84917,195.72884 c -54.02487,-11.4686 -58.67336,-87.58611 -6.34449,-103.888971 42.64837,-13.28694 80.38658,10.594571 80.38658,50.870271 0,37.26738 -33.8982,61.5406 -74.04209,53.0187 z m 25.83012,-26.87922 c 27.1112,-11.62122 19.12238,-54.09556 -10.17461,-54.09556 -16.0863,0 -26.32249,10.8794 -26.30326,27.95608 0.0233,20.71296 18.40625,33.88588 36.47787,26.13948 z"
       id="letter-o" />
    <!-- e letter with hole (black) - combined paths with evenodd -->
    <path
       style="fill:#1a1a1a;fill-rule:evenodd"
       d="m 480.50468,195.70074 c -56.7741,-9.7677 -62.17536,-90.67859 -7,-104.860071 41.18667,-10.58603 74.99725,13.313141 73.78703,52.156731 l -0.28703,9.21274 h -39.74996 c -21.86248,0 -39.74998,0.35543 -39.75,0.78984 -8.5e-4,16.6112 34.83792,24.03571 51.91407,11.06344 5.46589,-4.15229 4.09563,-4.71432 13.83727,5.67553 9.17531,9.78583 9.18167,9.82555 2.43826,15.22889 -12.23774,9.8058 -34.92882,14.2186 -55.18964,10.7329 z m 35.00034,-64.78044 c -0.002,-8.17702 -13.50096,-18.21016 -24.50034,-18.21016 -10.81575,0 -25.51302,11.0889 -25.49957,19.2391 2.4e-4,0.1435 11.25039,0.2609 25.00034,0.2609 19.74525,0 24.99984,-0.27111 24.99957,-1.28984 z"
       id="letter-e" />
    <!-- C letter (gold) -->
    <path
       style="fill:url(#goldGradient)"
       d="m 747.50468,196.73864 c -90.05182,-9.7223 -92.98947,-136.960601 -3.5,-151.595441 26.28764,-4.299 50.38369,2.39443 70,19.44469 6.48282,5.63479 6.623,5.1805 -5.05641,16.38536 -13.01591,12.48705 -11.3253,11.9614 -18.20723,5.66111 -35.88638,-32.85338 -89.50872,3.31584 -74.17294,50.030961 10.05328,30.6238 49.69973,41.21075 72.61284,19.3901 8.9962,-8.56727 6.80486,-8.88644 18.75844,2.73211 12.48408,12.13416 12.46496,12.03439 3.8153,19.90716 -15.58808,14.18805 -39.01798,20.76805 -64.25,18.04395 z"
       id="letter-C" />
    <!-- K icon main (gold) -->
    <path
       id="k-icon-main"
       style="fill:url(#goldGradient)"
       d="M 3.5039062 1.6875 L 3.5039062 56.699219 C 3.5039064 86.955599 3.7987521 111.71094 4.1582031 111.71094 C 4.5176551 111.71094 9.9176556 106.67271 16.158203 100.51562 L 27.503906 89.320312 L 27.503906 57.515625 L 27.503906 25.710938 L 43.003906 25.710938 L 58.503906 25.710938 L 58.503906 55.035156 L 58.503906 84.361328 L 31.003906 111.91211 L 3.5039062 139.46484 L 3.5039062 189.58789 L 3.5039062 239.71094 L 42.990234 239.71094 L 82.476562 239.71094 L 82.740234 207.76562 L 83.003906 175.82227 L 115.23438 207.76562 L 147.46484 239.71094 L 200.98438 239.71094 C 242.79576 239.71094 254.50391 239.43971 254.50391 238.47461 C 254.50391 237.79521 227.84141 210.56773 195.25391 177.96875 C 162.66641 145.36973 136.00391 118.26506 136.00391 117.73633 C 136.00391 117.2076 161.31641 91.405326 192.25391 60.398438 C 223.19141 29.391547 248.50391 3.5030875 248.50391 2.8671875 C 248.50391 2.0066575 234.80248 1.7109375 194.92188 1.7109375 L 141.33984 1.7109375 L 111.9375 30.966797 L 82.533203 60.224609 L 82.269531 31.216797 L 82.003906 2.2109375 L 42.753906 1.9492188 L 3.5039062 1.6875 z M 151.04492 25.710938 L 171.98633 25.710938 L 192.92969 25.710938 L 125.7168 92.9375 L 58.503906 160.16406 L 58.503906 187.4375 L 58.503906 214.71094 L 53.660156 214.71094 C 50.995715 214.71094 44.020715 215.00273 38.160156 215.36133 L 27.503906 216.01367 L 27.503906 182.93164 L 27.503906 149.85156 L 89.275391 87.78125 L 151.04492 25.710938 z M 117.87891 134.71094 C 117.95457 134.71094 136.11206 152.82755 158.22852 174.9707 L 198.43945 215.23047 L 177.72266 215.24609 L 157.00391 215.26172 L 127.27734 185.73633 C 110.92733 169.49703 97.652334 155.88568 97.777344 155.48828 C 97.969624 154.87706 117.47985 134.71094 117.87891 134.71094 z " />
    <!-- K icon detail (transparent/cut-through) -->
    <!-- K icon detail 2 (transparent/cut-through) -->
  </g>
</svg>
