<?xml version="1.0" encoding="UTF-8" standalone="no"?>
<!-- Created with Inkscape (http://www.inkscape.org/) -->

<svg
   version="1.1"
   id="svg1"
   width="947"
   height="241"
   viewBox="0 0 947 241"
   xmlns="http://www.w3.org/2000/svg"
   xmlns:svg="http://www.w3.org/2000/svg">
  <defs
     id="defs1" />
  <g
     id="g1">
    <path
       style="fill:#000000"
       d="m 3.4827897,188.33295 v -50.12269 l 27.5000003,-27.55219 27.5,-27.552192 v -29.32511 -29.32512 h -15.5 -15.5 v 31.80532 31.80532 L 16.136338,99.260969 C 9.8957902,105.41804 4.4957897,110.45565 4.1363377,110.45565 c -0.359451,0 -0.653548,-24.755222 -0.653548,-55.011602 V 0.4324379 l 39.2500003,0.26161 39.25,0.2616 0.264719,29.0073301 0.264718,29.00732 29.402753,-29.25732 29.40274,-29.2573301 h 53.58253 c 39.88061,0 53.58253,0.29566 53.58253,1.15619 0,0.6359 -25.3125,26.5254701 -56.25,57.5323601 -30.9375,31.00689 -56.24999,56.808762 -56.24999,57.337492 0,0.52873 26.66249,27.63326 59.24999,60.23228 32.5875,32.59898 59.25,59.82688 59.25,60.50628 0,0.9651 -11.70871,1.2354 -53.52009,1.2354 h -53.52008 l -32.22991,-31.9441 -32.22991,-31.94417 -0.263853,31.94417 -0.263853,31.9441 H 42.968937 3.4827897 Z m 50.1555633,25.1227 h 4.844437 v -27.2734 -27.27335 l 67.21204,-67.226622 67.21203,-67.22663 H 171.96468 151.02252 L 89.252653,86.525878 27.48279,148.5961 v 33.08175 33.0817 l 10.655563,-0.6519 c 5.860559,-0.3586 12.835559,-0.652 15.5,-0.652 z M 158.20632,173.71592 c -22.11646,-22.14315 -40.27365,-40.26027 -40.34931,-40.26027 -0.39906,0 -19.90924,20.16623 -20.10152,20.77745 -0.12501,0.3974 13.14999,14.00925 29.5,30.24855 l 29.7273,29.526 20.71765,-0.016 20.71765,-0.016 z m 589.27646,21.76823 c -90.05182,-9.7223 -92.98947,-136.960602 -3.5,-151.595442 26.28764,-4.299 50.38369,2.39443 70,19.44469 6.48282,5.63479 6.623,5.1805 -5.05641,16.38536 -13.01591,12.48705 -11.3253,11.9614 -18.20723,5.66111 -35.88638,-32.85338 -89.50872,3.31584 -74.17294,50.030962 10.05328,30.6238 49.69973,41.21075 72.61284,19.3901 8.9962,-8.56727 6.80486,-8.88644 18.75844,2.73211 12.48408,12.13416 12.46496,12.03439 3.8153,19.90716 -15.58808,14.18805 -39.01798,20.76805 -64.25,18.04395 z m -267,-1.0379 c -56.7741,-9.7677 -62.17536,-90.67859 -7,-104.860072 41.18667,-10.58603 74.99725,13.313142 73.78703,52.156732 l -0.28703,9.21274 h -39.74996 c -21.86248,0 -39.74998,0.35543 -39.75,0.78984 -8.5e-4,16.6112 34.83792,24.03571 51.91407,11.06344 5.46589,-4.15229 4.09563,-4.71432 13.83727,5.67553 9.17531,9.78583 9.18167,9.82555 2.43826,15.22889 -12.23774,9.8058 -34.92882,14.2186 -55.18964,10.7329 z m 36.00034,-64.78044 c -0.002,-8.17702 -13.50096,-18.21016 -24.50034,-18.21016 -10.81575,0 -25.51302,11.0889 -25.49957,19.2391 2.4e-4,0.1435 11.25039,0.2609 25.00034,0.2609 19.74525,0 24.99984,-0.27111 24.99957,-1.28984 z m 354.34415,64.80854 c -54.02487,-11.4686 -58.67336,-87.58611 -6.34449,-103.888972 42.64837,-13.28694 80.38658,10.594572 80.38658,50.870272 0,37.26738 -33.8982,61.5406 -74.04209,53.0187 z m 25.83012,-26.87922 c 27.1112,-11.62122 19.12238,-54.09556 -10.17461,-54.09556 -16.0863,0 -26.32249,10.8794 -26.30326,27.95608 0.0233,20.71296 18.40625,33.88588 36.47787,26.13948 z m -597.93115,26.04552 c -0.99382,-0.6415 -1.2029,-16.16572 -1,-74.24806 l 0.25654,-73.436942 h 17.5 17.5 l 0.5,31.83847 0.5,31.838472 5.85621,-6.19516 c 3.22091,-3.40734 8.12256,-8.734652 10.89255,-11.838472 2.76999,-3.10382 7.78972,-8.56831 11.15497,-12.14331 3.36524,-3.575 11.90678,-12.6875 18.98119,-20.25 l 12.86257,-13.75 h 18.70959 c 10.29027,0 18.98724,0.27765 19.32659,0.617 0.6295,0.62951 -16.23092,19.60879 -43.84439,49.35433 -16.53521,17.811912 -19.15648,9.156112 17.60813,58.144442 8.00108,10.66133 16.66929,22.30923 19.26269,25.88423 2.5934,3.575 5.87496,7.9401 7.29236,9.7002 4.04013,5.0171 3.10807,5.2998 -17.47035,5.2998 -22.53145,0 -17.13024,3.8346 -42.60834,-30.25 -18.60643,-24.8917 -22.47841,-29.52923 -22.54289,-27 -0.0105,0.4125 -3.60115,4.50741 -7.97919,9.09981 l -7.96008,8.34981 -0.2708,19.65019 -0.27081,19.65019 -16.5,0.2481 c -9.075,0.1364 -17.06544,-0.117 -17.75654,-0.5631 z m 294.73753,-2.4482 c -1.08543,-1.7802 -1.9752,-3.614 -1.97725,-4.0751 -0.002,-0.461 -1.369,-3.7879 -3.03766,-7.39301 -1.66866,-3.60514 -5.05745,-11.49538 -7.53064,-17.53387 -2.47319,-6.03848 -5.33002,-12.8366 -6.34851,-15.10694 -2.29022,-5.10519 -5.55851,-12.71847 -16.08406,-37.46686 -9.75453,-22.935542 -10.46517,-21.289072 9.03714,-20.937992 17.9565,0.32325 14.91201,-2.10585 23.53392,18.776972 3.06557,7.425 6.18005,14.85 6.92106,16.5 0.74102,1.65 2.47335,5.925 3.84962,9.5 4.45591,11.57461 8.49593,20.44685 9.45637,20.76699 0.51597,0.17199 7.13605,-14.21772 14.71128,-31.97714 7.57524,-17.75942 14.27144,-32.620462 14.88045,-33.024532 1.92302,-1.27593 30.60729,-0.91811 30.60729,0.3818 0,0.97267 -6.70295,17.146492 -12.99364,31.352882 -0.97417,2.2 -3.22332,7.375 -4.99809,11.5 -1.77478,4.125 -3.83222,8.85 -4.57209,10.5 -0.73987,1.65 -2.29933,5.475 -3.46546,8.5 -1.16614,3.025 -4.36633,10.675 -7.11155,17 -2.74521,6.325 -6.14672,14.2 -7.5589,17.5 -3.81403,8.9126 -2.61966,8.4062 -19.90811,8.4418 -15.43765,0.032 -15.43765,0.032 -17.41117,-3.205 z"
       id="path1" />
  </g>
</svg>
