<svg xmlns="http://www.w3.org/2000/svg" viewBox="0 0 100 100">
  <defs>
    <linearGradient id="goldGradient" x1="0%" y1="0%" x2="100%" y2="100%">
      <stop offset="0%" style="stop-color:#D4AF37"/>
      <stop offset="50%" style="stop-color:#C5A059"/>
      <stop offset="100%" style="stop-color:#B8960C"/>
    </linearGradient>
  </defs>
  <rect width="100" height="100" rx="20" fill="#1a1a1a"/>
  <g transform="translate(12, 8) scale(0.3)">
    <path d="M 3.5 1.7 L 3.5 56.7 C 3.5 87 3.8 111.7 4.2 111.7 C 4.5 111.7 9.9 106.7 16.2 100.5 L 27.5 89.3 L 27.5 57.5 L 27.5 25.7 L 43 25.7 L 58.5 25.7 L 58.5 55 L 58.5 84.4 L 31 111.9 L 3.5 139.5 L 3.5 189.6 L 3.5 239.7 L 43 239.7 L 82.5 239.7 L 82.7 207.8 L 83 175.8 L 115.2 207.8 L 147.5 239.7 L 201 239.7 C 242.8 239.7 254.5 239.4 254.5 238.5 C 254.5 237.8 227.8 210.6 195.3 178 C 162.7 145.4 136 118.3 136 117.7 C 136 117.2 161.3 91.4 192.3 60.4 C 223.2 29.4 248.5 3.5 248.5 2.9 C 248.5 2 234.8 1.7 194.9 1.7 L 141.3 1.7 L 111.9 31 L 82.5 60.2 L 82.3 31.2 L 82 2.2 L 42.8 1.9 L 3.5 1.7 z M 151 25.7 L 172 25.7 L 192.9 25.7 L 125.7 92.9 L 58.5 160.2 L 58.5 187.4 L 58.5 214.7 L 53.7 214.7 C 51 214.7 44 215 38.2 215.4 L 27.5 216 L 27.5 182.9 L 27.5 149.9 L 89.3 87.8 L 151 25.7 z M 117.9 134.7 C 118 134.7 136.1 152.8 158.2 175 L 198.4 215.2 L 177.7 215.2 L 157 215.3 L 127.3 185.7 C 110.9 169.5 97.7 155.9 97.8 155.5 C 98 154.9 117.5 134.7 117.9 134.7 z" fill="url(#goldGradient)"/>
  </g>
</svg>
